<?xml version="1.0" encoding="UTF-8" standalone="no"?>
<!-- Generator: Adobe Illustrator 22.1.0, SVG Export Plug-In . SVG Version: 6.00 Build 0)  -->

<svg
   xmlns:dc="http://purl.org/dc/elements/1.1/"
   xmlns:cc="http://creativecommons.org/ns#"
   xmlns:rdf="http://www.w3.org/1999/02/22-rdf-syntax-ns#"
   xmlns:svg="http://www.w3.org/2000/svg"
   xmlns="http://www.w3.org/2000/svg"
   xmlns:sodipodi="http://sodipodi.sourceforge.net/DTD/sodipodi-0.dtd"
   xmlns:inkscape="http://www.inkscape.org/namespaces/inkscape"
   version="1.1"
   id="Layer_1"
   x="0px"
   y="0px"
   viewBox="0 0 283.5 89.800003"
   xml:space="preserve"
   sodipodi:docname="NU_Logo_White.svg"
   width="283.5"
   height="89.800003"
   inkscape:export-filename="E:\PDF logo\NU_Logo_White.png"
   inkscape:export-xdpi="3000"
   inkscape:export-ydpi="3000"
   inkscape:version="0.92.3 (2405546, 2018-03-11)"><metadata
   id="metadata107"><rdf:RDF><cc:Work
       rdf:about=""><dc:format>image/svg+xml</dc:format><dc:type
         rdf:resource="http://purl.org/dc/dcmitype/StillImage" /><dc:title></dc:title></cc:Work></rdf:RDF></metadata><defs
   id="defs105" /><sodipodi:namedview
   pagecolor="#ffffff"
   bordercolor="#666666"
   borderopacity="1"
   objecttolerance="10"
   gridtolerance="10"
   guidetolerance="10"
   inkscape:pageopacity="0"
   inkscape:pageshadow="2"
   inkscape:window-width="1366"
   inkscape:window-height="705"
   id="namedview103"
   showgrid="false"
   fit-margin-top="0"
   fit-margin-left="0"
   fit-margin-right="0"
   fit-margin-bottom="0"
   inkscape:zoom="0.79685748"
   inkscape:cx="141.7"
   inkscape:cy="-49.978946"
   inkscape:window-x="-8"
   inkscape:window-y="-8"
   inkscape:window-maximized="1"
   inkscape:current-layer="Layer_1" />
<style
   type="text/css"
   id="style2">
	.st0{fill:#FFFFFF;}
</style>
<g
   id="g963"
   transform="translate(-36.5,-36.3)"><g
     id="g100">
	<polygon
   id="polygon4"
   points=""
   class="st0"
   style="fill:#ffffff" />
	<path
   id="path6"
   d="m 135,52.4 c 0,-2.3 0,-4.6 -0.1,-6.8 h 0.1 c 1.5,2 2.9,4 4.4,6.1 l 7.1,9.5 h 4.9 V 37.6 h -5 v 8.7 c 0,2.3 0,4.5 0.1,6.8 h -0.1 c -1.5,-2 -2.9,-4 -4.4,-6.1 l -7.1,-9.5 H 130 V 61 h 5 z"
   class="st0"
   inkscape:connector-curvature="0"
   style="fill:#ffffff" />
	<path
   id="path8"
   d="m 162.3,61.5 c 5.1,0 8.9,-3.6 8.9,-8.4 0,-4.7 -3.8,-8.4 -8.9,-8.4 -5.1,0 -8.9,3.6 -8.9,8.4 -0.1,4.7 3.7,8.4 8.9,8.4 z m 0,-12.5 c 2.2,0 4,1.8 4,4.1 0,2.3 -1.7,4.1 -4,4.1 -2.3,0 -4,-1.8 -4,-4.1 0,-2.3 1.7,-4.1 4,-4.1 z"
   class="st0"
   inkscape:connector-curvature="0"
   style="fill:#ffffff" />
	<path
   id="path10"
   d="m 178.2,51.4 c 1.2,-1.4 2.6,-1.9 4.3,-1.9 0.5,0 0.9,0.1 1.3,0.2 V 45 c -0.4,-0.1 -0.7,-0.1 -1,-0.1 -2,0 -3.5,0.8 -4.6,2.4 h -0.1 v -2.1 h -4.8 v 16 h 4.9 z"
   class="st0"
   inkscape:connector-curvature="0"
   style="fill:#ffffff" />
	<path
   id="path12"
   d="m 188.6,55.1 c 0,2.5 0.6,3.9 1.4,4.8 1,1.1 2.5,1.6 4.2,1.6 1.4,0 2.9,-0.4 3.6,-0.9 v -3.9 c -0.6,0.3 -1.6,0.6 -2.4,0.6 -1.5,0 -1.9,-1.2 -1.9,-2.7 v -5.4 h 4.2 v -4.1 h -4.2 v -5 l -4.9,0.8 v 4.2 H 186 v 4.1 h 2.6 z"
   class="st0"
   inkscape:connector-curvature="0"
   style="fill:#ffffff" />
	<path
   id="path14"
   d="m 205.2,50.3 c 0.9,-0.7 2.1,-1.3 3.3,-1.3 0.7,0 1.3,0.2 1.7,0.7 0.4,0.5 0.6,1 0.6,2.2 v 9.2 h 4.9 v -10 c 0,-2.3 -0.4,-3.7 -1.4,-4.7 -1,-1 -2.5,-1.6 -4.2,-1.6 -2,0 -3.7,0.8 -4.9,1.8 h -0.1 V 36.3 h -4.9 v 24.8 h 4.9 V 50.3 Z"
   class="st0"
   inkscape:connector-curvature="0"
   style="fill:#ffffff" />
	<path
   id="path16"
   d="m 223.9,61.5 c 2.1,0 3.6,-0.8 4.9,-1.9 h 0.1 v 1.5 h 4.9 v -16 h -4.9 v 10.7 c -0.8,0.7 -2,1.4 -3.3,1.4 -0.7,0 -1.3,-0.2 -1.8,-0.7 -0.4,-0.5 -0.6,-1.1 -0.6,-2.3 v -9.1 h -4.9 V 55 c 0,2.4 0.5,3.8 1.5,4.9 0.9,0.9 2.3,1.6 4.1,1.6 z"
   class="st0"
   inkscape:connector-curvature="0"
   style="fill:#ffffff" />
	<path
   id="path18"
   d="m 241.8,50.3 c 0.8,-0.7 2,-1.3 3.1,-1.3 0.6,0 1.2,0.2 1.7,0.7 0.4,0.5 0.6,1.1 0.6,2.2 v 9.2 h 4.9 v -10 c 0,-0.2 0,-0.5 0,-0.7 0.8,-0.7 2,-1.3 3.2,-1.3 0.6,0 1.2,0.2 1.7,0.7 0.4,0.4 0.6,1 0.6,2.2 v 9.2 h 4.9 v -10 c 0,-2.3 -0.5,-3.7 -1.5,-4.7 -0.9,-1 -2.3,-1.6 -4.1,-1.6 -2,0 -3.9,0.7 -5.6,2.3 -0.9,-1.6 -2.9,-2.3 -4.6,-2.3 -1.9,0 -3.6,0.8 -4.8,1.8 h -0.1 v -1.4 h -4.9 v 16 h 4.9 z"
   class="st0"
   inkscape:connector-curvature="0"
   style="fill:#ffffff" />
	<path
   id="path20"
   d="m 273.4,61.5 c 5,0 8.6,-3.6 8.6,-8.6 0,-5 -3.6,-8.1 -7.5,-8.1 -1.5,0 -3,0.5 -3.9,1.1 h -0.1 v -9.6 h -4.9 v 25 l 3.9,-0.6 c 1,0.4 2.3,0.8 3.9,0.8 z m -2.9,-11.8 c 0.7,-0.4 1.7,-0.8 2.7,-0.8 2.4,0 3.8,1.8 3.8,4.2 0,2.3 -1.4,4.4 -4,4.4 -0.9,0 -1.9,-0.3 -2.5,-0.6 z"
   class="st0"
   inkscape:connector-curvature="0"
   style="fill:#ffffff" />
	<path
   id="path22"
   d="m 288.9,47.3 v 0 l -0.1,-2.2 H 284 v 16 h 4.9 v -9.7 c 1.2,-1.4 2.6,-1.9 4.3,-1.9 0.5,0 0.9,0.1 1.3,0.2 V 45 c -0.4,-0.1 -0.7,-0.1 -1,-0.1 -1.9,0 -3.4,0.8 -4.6,2.4 z"
   class="st0"
   inkscape:connector-curvature="0"
   style="fill:#ffffff" />
	<rect
   id="rect24"
   height="16"
   width="4.9000001"
   class="st0"
   y="45.099998"
   x="297.10001"
   style="fill:#ffffff" />
	<path
   id="path26"
   d="m 299.5,37.2 c -1.6,0 -2.9,1.3 -2.9,2.8 0,1.6 1.3,2.8 2.9,2.8 1.6,0 2.9,-1.3 2.9,-2.8 0,-1.5 -1.3,-2.8 -2.9,-2.8 z"
   class="st0"
   inkscape:connector-curvature="0"
   style="fill:#ffffff" />
	<path
   id="path28"
   d="m 319.1,57.4 c -0.7,0 -1,-0.5 -1,-1.3 v -5.4 c 0,-2 -0.6,-3.4 -1.8,-4.4 -1.3,-1 -3.2,-1.5 -5.3,-1.5 -2.3,0 -4.3,0.6 -5.6,1.2 v 4.3 c 1.3,-0.7 2.9,-1.3 4.7,-1.3 1.2,0 2,0.3 2.5,0.7 0.4,0.3 0.6,0.9 0.6,1.7 V 52 c -0.9,-0.2 -1.8,-0.3 -2.8,-0.3 -1.7,0 -3.2,0.3 -4.5,1.1 -1.1,0.8 -1.9,2.1 -1.9,3.9 0,1.7 0.7,2.9 1.9,3.7 1,0.7 2.3,1 3.7,1 1.8,0 3.4,-0.6 4.5,-1.3 h 0.1 c 0.9,0.9 2.1,1.3 3.4,1.3 0.9,0 1.8,-0.2 2.4,-0.5 v -3.7 c -0.3,0.1 -0.6,0.2 -0.9,0.2 z m -5.9,-0.2 c -0.6,0.4 -1.4,0.6 -2.2,0.6 -1.1,0 -2,-0.6 -2,-1.6 0,-1.2 1.3,-1.6 2.5,-1.6 0.5,0 1.2,0.1 1.8,0.2 v 2.4 z"
   class="st0"
   inkscape:connector-curvature="0"
   style="fill:#ffffff" />
	<g
   id="g72">
		<path
   id="path30"
   d="m 150.5,70.1 h -5 v 12.1 c 0,2.5 -0.3,4.1 -1,5.2 -0.8,1.2 -2.1,1.9 -4.2,1.9 -2.2,0 -3.6,-0.9 -4.3,-2 -0.7,-1.1 -0.9,-2.6 -0.9,-5.1 V 70.1 H 130 v 12.3 c 0,3.3 0.5,5.9 1.8,7.8 1.7,2.4 4.7,3.8 8.5,3.8 3.8,0 6.8,-1.4 8.5,-3.8 1.3,-1.9 1.8,-4.5 1.8,-8 V 70.1 Z"
   class="st0"
   inkscape:connector-curvature="0"
   style="fill:#ffffff" />
		<path
   id="path32"
   d="m 164.1,93.6 h 4.9 v -10 c 0,-2.3 -0.4,-3.7 -1.4,-4.7 -1,-1 -2.5,-1.6 -4.2,-1.6 -2,0 -3.7,0.8 -4.9,1.9 h -0.1 v -1.5 h -4.9 v 16 h 4.9 V 82.8 c 0.9,-0.7 2.1,-1.3 3.3,-1.3 0.7,0 1.3,0.2 1.7,0.7 0.4,0.5 0.6,1 0.6,2.2 v 9.2 z"
   class="st0"
   inkscape:connector-curvature="0"
   style="fill:#ffffff" />
		<rect
   id="rect34"
   height="16"
   width="4.9000001"
   class="st0"
   y="77.599998"
   x="172.10001"
   style="fill:#ffffff" />
		<path
   id="path36"
   d="m 174.6,75.4 c 1.6,0 2.9,-1.3 2.9,-2.8 0,-1.6 -1.3,-2.8 -2.9,-2.8 -1.6,0 -2.9,1.3 -2.9,2.8 0.1,1.5 1.4,2.8 2.9,2.8 z"
   class="st0"
   inkscape:connector-curvature="0"
   style="fill:#ffffff" />
		<path
   id="path38"
   d="m 190.5,93.6 6.5,-16 h -4.9 l -2,5.1 c -0.6,1.7 -1.3,3.5 -1.9,5.1 h -0.1 c -0.6,-1.6 -1.2,-3.4 -1.8,-5.1 l -1.9,-5.1 h -5.2 l 6.5,16 z"
   class="st0"
   inkscape:connector-curvature="0"
   style="fill:#ffffff" />
		<path
   id="path40"
   d="m 212.2,88.4 c -1.7,1.1 -3.6,1.8 -5.4,1.8 -2.3,0 -4.1,-1 -4.6,-3.2 H 213 c 0.1,-0.4 0.1,-1.1 0.1,-1.7 0,-5.4 -3.7,-8 -7.6,-8 -4.4,0 -8.4,3.3 -8.4,8.4 0,5 3.8,8.3 9.1,8.3 2.1,0 4.5,-0.5 6.1,-1.5 V 88.4 Z M 205.4,81 c 1.6,0 2.9,1 3.2,2.8 h -6.4 c 0.3,-1.8 1.6,-2.8 3.2,-2.8 z"
   class="st0"
   inkscape:connector-curvature="0"
   style="fill:#ffffff" />
		<path
   id="path42"
   d="m 226.3,77.5 c -0.4,-0.1 -0.7,-0.1 -1,-0.1 -2,0 -3.5,0.8 -4.6,2.4 h -0.1 v -2.1 h -4.8 v 16 h 4.9 V 84 c 1.2,-1.4 2.6,-1.9 4.3,-1.9 0.5,0 0.9,0.1 1.3,0.2 z"
   class="st0"
   inkscape:connector-curvature="0"
   style="fill:#ffffff" />
		<path
   id="path44"
   d="m 233,87.2 c 2.4,0.6 4.2,0.5 4.2,1.7 0,0.9 -0.8,1.2 -2.2,1.2 -1.5,0 -4.1,-0.6 -6.3,-1.9 v 4.3 c 1.9,0.9 4.4,1.3 6.3,1.3 4.1,0 7.2,-1.9 7.2,-5.4 0,-2.8 -1.9,-3.9 -4.9,-4.7 -2.4,-0.6 -4.1,-0.5 -4.1,-1.7 0,-0.7 0.8,-1.1 2.1,-1.1 1.4,0 3.9,0.5 6,1.7 v -4.3 c -1.8,-0.9 -4.2,-1.3 -6.1,-1.3 -4,0 -7,1.9 -7,5.3 0,2.9 1.8,4.2 4.8,4.9 z"
   class="st0"
   inkscape:connector-curvature="0"
   style="fill:#ffffff" />
		<rect
   id="rect46"
   height="16"
   width="4.9000001"
   class="st0"
   y="77.599998"
   x="244.8"
   style="fill:#ffffff" />
		<path
   id="path48"
   d="m 247.3,75.4 c 1.6,0 2.9,-1.3 2.9,-2.8 0,-1.6 -1.3,-2.8 -2.9,-2.8 -1.6,0 -2.9,1.3 -2.9,2.8 0,1.5 1.3,2.8 2.9,2.8 z"
   class="st0"
   inkscape:connector-curvature="0"
   style="fill:#ffffff" />
		<path
   id="path50"
   d="m 264,93.1 v -3.9 c -0.6,0.3 -1.6,0.6 -2.4,0.6 -1.5,0 -1.9,-1.2 -1.9,-2.7 v -5.4 h 4.2 v -4.1 h -4.2 v -5 l -4.9,0.8 v 4.2 h -2.6 v 4.1 h 2.6 v 5.9 c 0,2.5 0.6,3.9 1.4,4.8 1,1.1 2.5,1.6 4.2,1.6 1.4,0 2.8,-0.4 3.6,-0.9 z"
   class="st0"
   inkscape:connector-curvature="0"
   style="fill:#ffffff" />
		<path
   id="path52"
   d="m 267.7,100.8 h 5 l 10.4,-23.1 h -4.9 l -1.7,3.9 c -0.7,1.7 -1.5,3.4 -2.2,5.2 h -0.1 c -0.6,-1.7 -1.3,-3.3 -2,-5.1 l -1.7,-4 h -5.2 l 6.5,14.2 z"
   class="st0"
   inkscape:connector-curvature="0"
   style="fill:#ffffff" />
		<path
   id="path54"
   d="m 143.4,115.8 c 0,1.8 0,3.6 0,5.3 v 0 c -1,-1.4 -2,-2.8 -3.1,-4.2 l -6.3,-8.4 h -2.9 v 17.4 h 3 v -7.3 c 0,-1.8 0,-3.6 0,-5.3 v 0 c 1,1.4 2,2.8 3.1,4.2 l 6.3,8.4 h 2.9 v -17.4 h -3 z"
   class="st0"
   inkscape:connector-curvature="0"
   style="fill:#ffffff" />
		<polygon
   id="polygon56"
   points="159.8,115.6 153.5,115.6 153.5,111.2 160.8,111.2 160.8,108.5 150.4,108.5 150.4,125.9 161,125.9 161,123.2 153.5,123.2 153.5,118.2 159.8,118.2 "
   class="st0"
   style="fill:#ffffff" />
		<path
   id="path58"
   d="m 182.4,117 c -0.5,1.5 -0.9,3.1 -1.3,4.6 v 0 c -0.4,-1.5 -0.8,-2.9 -1.4,-4.6 l -2.6,-8.5 h -2.2 l -2.6,8.4 c -0.5,1.5 -1,3.1 -1.4,4.6 v 0 c -0.4,-1.5 -0.9,-3.1 -1.3,-4.6 l -2.5,-8.5 h -3.2 l 5.4,17.4 h 3.2 l 2.3,-7.5 c 0.4,-1.4 0.8,-2.8 1.2,-4.1 v 0 c 0.4,1.3 0.8,2.8 1.2,4.2 l 2.3,7.4 h 3.2 l 5.4,-17.4 H 185 Z"
   class="st0"
   inkscape:connector-curvature="0"
   style="fill:#ffffff" />
		<path
   id="path60"
   d="m 192.4,117.2 c 0,-3.5 2.5,-6.2 6.2,-6.2 1.8,0 3.6,0.6 4.9,1.6 v -3.2 c -1.4,-0.7 -3.1,-1.2 -4.9,-1.2 -5.5,0 -9.3,4 -9.3,9 0,5.1 3.8,8.9 9.3,8.9 1.8,0 3.7,-0.4 5.1,-1.2 v -3.2 c -1.4,1.1 -3.1,1.7 -4.9,1.7 -3.8,0 -6.4,-2.7 -6.4,-6.2 z"
   class="st0"
   inkscape:connector-curvature="0"
   style="fill:#ffffff" />
		<path
   id="path62"
   d="m 213.7,108.5 -7.1,17.4 h 3.1 l 1.7,-4.3 h 7.5 l 1.7,4.3 h 3.2 l -7.1,-17.4 z m 4.2,10.7 h -5.5 l 1,-2.6 c 0.6,-1.6 1.2,-3.1 1.7,-4.7 v 0 c 0.6,1.6 1.1,3.1 1.7,4.7 z"
   class="st0"
   inkscape:connector-curvature="0"
   style="fill:#ffffff" />
		<path
   id="path64"
   d="m 232.9,115.8 c -2.1,-0.6 -3.9,-0.9 -3.9,-2.7 0,-1.5 1.2,-2.1 2.8,-2.1 1.4,0 3.5,0.5 5.2,1.6 v -3.1 c -1.5,-0.9 -3.5,-1.3 -5.2,-1.3 -3.5,0 -5.9,1.9 -5.9,5 0,3.1 2.3,4.2 4.7,4.9 2.3,0.7 4.1,0.9 4.1,2.9 0,1.6 -1.2,2.4 -3,2.4 -1.4,0 -3.7,-0.6 -5.4,-1.8 v 3.2 c 1.6,0.9 3.7,1.3 5.4,1.3 3.6,0 6.1,-2 6.1,-5.2 0,-3.1 -2.3,-4.3 -4.9,-5.1 z"
   class="st0"
   inkscape:connector-curvature="0"
   style="fill:#ffffff" />
		<polygon
   id="polygon66"
   points="245.7,125.9 248.7,125.9 248.7,111.2 254.5,111.2 254.5,108.5 240,108.5 240,111.2 245.7,111.2 "
   class="st0"
   style="fill:#ffffff" />
		<polygon
   id="polygon68"
   points="258.1,125.9 269.1,125.9 269.1,123.2 261.2,123.2 261.2,108.5 258.1,108.5 "
   class="st0"
   style="fill:#ffffff" />
		<polygon
   id="polygon70"
   points="281.7,115.6 275.3,115.6 275.3,111.2 282.6,111.2 282.6,108.5 272.3,108.5 272.3,125.9 282.9,125.9 282.9,123.2 275.3,123.2 275.3,118.2 281.7,118.2 "
   class="st0"
   style="fill:#ffffff" />
	</g>
	<g
   id="g98">
		<g
   id="g80">
			<path
   id="path74"
   d="M 63.7,88.8 C 63,88.9 62.3,89 61.5,89 c -0.1,0 -0.2,0 -0.3,0 0,1.6 -0.2,8.8 -0.2,8.8 l -0.2,6.1 c 3.7,1 8.1,-0.2 11.7,1.6 V 90 c -0.6,-0.4 -1.6,-0.9 -3.3,-1.3 -1.4,-0.3 -3.9,-0.2 -5.5,0.1 z"
   class="st0"
   inkscape:connector-curvature="0"
   style="fill:#ffffff" />
			<path
   id="path76"
   d="m 85.9,89 c -0.1,0 -0.2,0 -0.3,0 -0.8,0 -1.5,-0.1 -2.3,-0.2 -1.6,-0.2 -4.1,-0.4 -5.4,-0.1 -1.7,0.4 -2.7,1 -3.3,1.3 v 15.4 c 3.6,-1.8 8,-0.6 11.7,-1.6 l -0.2,-6.1 c 0,0 -0.2,-7.1 -0.2,-8.7 z"
   class="st0"
   inkscape:connector-curvature="0"
   style="fill:#ffffff" />
			<path
   id="path78"
   d="m 107.3,90.5 c -1.8,-1.2 -3.6,-2.3 -5.4,-3.3 h -0.1 v -0.1 l 2.3,-4.7 c -1.5,-0.8 -3,-1.5 -4.4,-2.2 C 99.4,80 99,79.9 98.6,79.7 l -1.8,5.1 H 96.7 C 94.4,83.8 92,83 89.6,82.3 H 89.5 V 82.2 L 90.9,77 c -1.9,-0.6 -4,-1 -6,-1.4 L 84.1,81 H 84 C 81.5,80.5 78.9,80.2 76.3,80.1 H 76.2 V 80 l 0.3,-5.3 c -1,-0.1 -2.1,-0.1 -3.1,-0.1 -1,0 -2.1,0 -3.1,0.1 l 0.3,5.4 h -0.1 c -2.6,0.1 -5.2,0.4 -7.7,0.9 H 62.7 V 80.9 L 62,75.5 c -2,0.4 -4,0.8 -6,1.4 l 1.4,5.2 h -0.1 c -2.4,0.7 -4.8,1.5 -7.1,2.5 h -0.1 l -1.8,-5.1 c -0.4,0.2 -0.8,0.3 -1.1,0.5 -1.5,0.7 -3,1.4 -4.4,2.2 l 2.4,4.8 h -0.1 c -1.8,1 -3.7,2.1 -5.4,3.3 v 0 c 4.1,11.1 13.2,24.4 33.8,35.4 20.6,-10.8 29.7,-24.1 33.8,-35.2 z M 82,107.3 c -1.7,0 -5.1,0.1 -7.3,1.6 h -2.2 c -2.2,-1.5 -5.6,-1.6 -7.3,-1.6 -2.1,0 -5.9,0.4 -9,0.1 l 0.7,-18.8 2.4,-1.9 c 2.5,0.7 3.7,0 6.5,0 3.1,0 5.3,0.4 7.8,1.9 v 0 c 2.5,-1.5 4.8,-1.9 7.8,-1.9 2.8,0 4,0.7 6.5,0 l 2.4,1.9 0.7,18.8 c -3.1,0.2 -6.9,-0.1 -9,-0.1 z"
   class="st0"
   inkscape:connector-curvature="0"
   style="fill:#ffffff" />
		</g>
		<g
   id="g96">
			<rect
   id="rect82"
   height="3.7"
   width="1.7"
   class="st0"
   y="54.200001"
   x="64.900002"
   style="fill:#ffffff" />
			<rect
   id="rect84"
   height="3.7"
   width="1.7"
   class="st0"
   y="48.900002"
   x="54.5"
   style="fill:#ffffff" />
			<rect
   id="rect86"
   height="3.7"
   width="1.7"
   class="st0"
   y="54.200001"
   x="44.099998"
   style="fill:#ffffff" />
			<rect
   id="rect88"
   height="3.7"
   width="1.7"
   class="st0"
   y="48.900002"
   x="90.699997"
   style="fill:#ffffff" />
			<path
   id="path90"
   d="m 36.5,37.6 c 0,0 0,24.7 0,34.1 0,3.7 0.2,10 2.7,17.4 1.3,-0.9 2.6,-1.7 3.9,-2.5 l -2.5,-5 1.4,-0.8 c 1.9,-1 3.8,-2 5.7,-2.8 v 0 l 1.5,-0.6 v 0.1 l 1.9,5.2 c 1.4,-0.6 2.8,-1.1 4.2,-1.5 l -1.4,-5.4 1.6,-0.5 c 2,-0.6 4.1,-1.1 6.1,-1.4 v 0 l 1.6,-0.3 v 0.1 l 0.8,5.5 c 1.6,-0.2 3.2,-0.4 4.8,-0.5 L 68.5,73.1 70.1,73 v 0 c 1.1,-0.1 2.1,-0.1 3.2,-0.1 v 0 c 1.1,0 2.1,0 3.2,0.1 l 1.6,0.1 v 0.1 L 78,78.6 c 1.6,0.1 3.2,0.3 4.8,0.5 l 0.8,-5.6 1.6,0.3 c 2.1,0.4 4.1,0.9 6.1,1.4 v 0 l 1.6,0.5 -1.4,5.4 c 1.4,0.4 2.8,1 4.2,1.5 l 1.9,-5.3 1.5,0.6 c 1.9,0.8 3.9,1.8 5.7,2.8 v 0 l 1.4,0.8 -2.5,5 c 1.3,0.8 2.7,1.6 3.9,2.5 2.5,-7.4 2.7,-13.7 2.7,-17.4 0,-9.4 0,-34.1 0,-34.1 H 36.5 Z M 51.2,42 h 1.6 v 1.7 h 1.8 V 42 h 1.5 v 1.7 h 1.8 V 42 h 1.6 v 3.9 h -8.3 z m 6.6,5.3 v 6.8 h -4.9 v -6.8 z m -9.4,21.2 h -6.9 v -3.6 h 6.9 z m -0.2,-5.1 h -6.6 l 0.9,-1.9 v -8.8 h 4.8 v 8.8 z M 49,51.2 h -8.3 v -3.8 h 1.6 V 49 h 1.8 v -1.7 h 1.5 V 49 h 1.8 V 47.3 H 49 Z m 12.5,10.2 -1,2 v 5.1 h -2.6 v -6.2 c 0,-1.6 -2.4,-2.5 -2.5,-2.6 v 0 0 c -0.1,0 -2.5,0.9 -2.5,2.6 v 6.2 h -2.6 v -4.9 l -1,-2.2 v -6 h 1.9 V 57 H 53 v -1.7 h 1.5 V 57 h 1.8 v -1.7 h 1.5 V 57 h 1.8 v -1.7 h 1.9 z m 7.7,7.1 h -6.9 v -3.6 h 6.9 z m -0.1,-5.1 h -6.6 l 0.9,-1.9 v -8.8 h 4.8 v 8.8 z m 0.8,-12.2 h -8.3 v -3.8 h 1.6 V 49 H 65 v -1.7 h 1.5 V 49 h 1.8 v -1.7 h 1.6 z m 14.6,17.3 h -6.9 v -3.6 h 6.9 z m -0.1,-5.1 h -6.6 l 0.9,-1.9 v -8.8 h 4.8 v 8.8 z M 85.2,51.2 H 77 v -3.8 h 1.6 V 49 h 1.8 v -1.7 h 1.5 V 49 h 1.8 v -1.7 h 1.6 z M 87.4,42 H 89 v 1.7 h 1.8 V 42 h 1.5 v 1.7 h 1.8 V 42 h 1.6 v 3.9 h -8.3 z m 6.5,5.3 v 6.8 H 89 v -6.8 z m 3.8,14.1 -1,2 v 5.1 h -2.6 v -6.2 c 0,-1.6 -2.4,-2.5 -2.5,-2.6 v 0 0 c -0.1,0 -2.5,0.9 -2.5,2.6 v 6.2 h -2.6 v -4.9 l -1,-2.2 v -6 h 1.9 V 57 h 1.8 v -1.7 h 1.5 V 57 h 1.8 V 55.3 H 94 V 57 h 1.8 v -1.7 h 1.9 z m 7.7,7.1 h -6.9 v -3.6 h 6.9 z m -0.1,-5.1 h -6.6 l 0.9,-1.9 v -8.8 h 4.8 v 8.8 z m 0.8,-12.2 h -8.3 v -3.8 h 1.6 V 49 h 1.8 v -1.7 h 1.5 V 49 h 1.8 v -1.7 h 1.6 z"
   class="st0"
   inkscape:connector-curvature="0"
   style="fill:#ffffff" />
			<rect
   id="rect92"
   height="3.7"
   width="1.7"
   class="st0"
   y="54.200001"
   x="101.1"
   style="fill:#ffffff" />
			<rect
   id="rect94"
   height="3.7"
   width="1.7"
   class="st0"
   y="54.200001"
   x="80.300003"
   style="fill:#ffffff" />
		</g>
	</g>
</g></g>
</svg>